<svg width="48" height="48" viewBox="0 0 48 48" fill="none" xmlns="http://www.w3.org/2000/svg">
<rect width="48" height="48" rx="24" fill="#FFEDEA"/>
<path d="M30.1 29.75H17.9C15.58 29.75 14.25 28.42 14.25 26.1V14C14.25 13.59 14.59 13.25 15 13.25H33C33.41 13.25 33.75 13.59 33.75 14V26.1C33.75 28.42 32.42 29.75 30.1 29.75ZM15.75 14.75V26.1C15.75 27.59 16.41 28.25 17.9 28.25H30.09C31.58 28.25 32.24 27.59 32.24 26.1V14.75H15.75Z" fill="#F35C35"/>
<path d="M34 14.75H14C13.59 14.75 13.25 14.41 13.25 14C13.25 13.59 13.59 13.25 14 13.25H34C34.41 13.25 34.75 13.59 34.75 14C34.75 14.41 34.41 14.75 34 14.75Z" fill="#F35C35"/>
<path d="M20.0003 34.75C19.7203 34.75 19.4603 34.6 19.3303 34.34C19.1403 33.97 19.2903 33.52 19.6703 33.33L23.2503 31.54V29C23.2503 28.59 23.5903 28.25 24.0003 28.25C24.4103 28.25 24.7503 28.59 24.7503 29V32C24.7503 32.28 24.5903 32.54 24.3303 32.67L20.3303 34.67C20.2303 34.72 20.1103 34.75 20.0003 34.75Z" fill="#F35C35"/>
<path d="M27.9999 34.7502C27.8899 34.7502 27.77 34.7202 27.67 34.6702L23.67 32.6702C23.3 32.4802 23.1499 32.0302 23.3299 31.6602C23.5199 31.2902 23.9699 31.1402 24.3399 31.3202L28.3399 33.3202C28.7099 33.5102 28.8599 33.9602 28.6799 34.3302C28.5399 34.6002 28.2699 34.7502 27.9999 34.7502Z" fill="#F35C35"/>
<path d="M19.4999 23.7497C19.2899 23.7497 19.0699 23.6597 18.9199 23.4797C18.6499 23.1597 18.6999 22.6897 19.0199 22.4197L22.1699 19.7897C22.4599 19.5497 22.8299 19.4497 23.1799 19.5097C23.5399 19.5697 23.8499 19.7897 24.0399 20.1097L25.0899 21.8597L28.0199 19.4197C28.3399 19.1597 28.8099 19.1997 29.0799 19.5197C29.3499 19.8397 29.2999 20.3097 28.9799 20.5797L25.8299 23.2097C25.5399 23.4497 25.1699 23.5497 24.8199 23.4897C24.4599 23.4297 24.1499 23.2097 23.9599 22.8897L22.9099 21.1397L19.9799 23.5797C19.8399 23.6897 19.6699 23.7497 19.4999 23.7497Z" fill="#F35C35"/>
</svg>
