<svg width="48" height="48" viewBox="0 0 48 48" fill="none" xmlns="http://www.w3.org/2000/svg">
<rect width="48" height="48" rx="24" fill="#FFEDEA"/>
<path d="M29.79 34.7402H18.21C15.47 34.7402 13.25 32.5102 13.25 29.7702V22.3602C13.25 21.0002 14.09 19.2902 15.17 18.4502L20.56 14.2502C22.18 12.9902 24.77 12.9302 26.45 14.1102L32.63 18.4402C33.82 19.2702 34.75 21.0502 34.75 22.5002V29.7802C34.75 32.5102 32.53 34.7402 29.79 34.7402ZM21.48 15.4302L16.09 19.6302C15.38 20.1902 14.75 21.4602 14.75 22.3602V29.7702C14.75 31.6802 16.3 33.2402 18.21 33.2402H29.79C31.7 33.2402 33.25 31.6902 33.25 29.7802V22.5002C33.25 21.5402 32.56 20.2102 31.77 19.6702L25.59 15.3402C24.45 14.5402 22.57 14.5802 21.48 15.4302Z" fill="#F35C35"/>
<path d="M19.5 29.2504C19.31 29.2504 19.12 29.1804 18.97 29.0304C18.68 28.7404 18.68 28.2604 18.97 27.9704L22.17 24.7704C22.33 24.6104 22.54 24.5304 22.77 24.5504C22.99 24.5704 23.19 24.6904 23.32 24.8804L24.41 26.5204L27.96 22.9704C28.25 22.6804 28.73 22.6804 29.02 22.9704C29.31 23.2604 29.31 23.7404 29.02 24.0304L24.82 28.2304C24.66 28.3904 24.45 28.4704 24.22 28.4504C24 28.4304 23.8 28.3104 23.67 28.1204L22.58 26.4804L20.03 29.0304C19.88 29.1804 19.69 29.2504 19.5 29.2504Z" fill="#F35C35"/>
<path d="M28.5 26.25C28.09 26.25 27.75 25.91 27.75 25.5V24.25H26.5C26.09 24.25 25.75 23.91 25.75 23.5C25.75 23.09 26.09 22.75 26.5 22.75H28.5C28.91 22.75 29.25 23.09 29.25 23.5V25.5C29.25 25.91 28.91 26.25 28.5 26.25Z" fill="#F35C35"/>
</svg>
