<svg width="25" height="24" viewBox="0 0 25 24" fill="none" xmlns="http://www.w3.org/2000/svg">
<g id="vuesax/bold/arrow-circle-right">
<g id="arrow-circle-right">
<path id="Vector" d="M3 12C3 6.76614 7.26614 2.5 12.5 2.5C17.7339 2.5 22 6.76614 22 12C22 17.2339 17.7339 21.5 12.5 21.5C7.26614 21.5 3 17.2339 3 12ZM12.1136 16.4136L15.641 12.8862C16.1397 12.4004 16.1397 11.5996 15.641 11.1138L12.1136 7.58645C11.6283 7.10118 10.8317 7.10118 10.3464 7.58645C9.86118 8.07171 9.86118 8.86829 10.3464 9.35355L12.9929 12L10.3464 14.6464C9.86118 15.1317 9.86118 15.9283 10.3464 16.4136C10.5952 16.6623 10.9145 16.78 11.23 16.78C11.5455 16.78 11.8648 16.6623 12.1136 16.4136Z" fill="white" stroke="white"/>
</g>
</g>
</svg>
