<svg width="60" height="40" viewBox="0 0 60 40" fill="none" xmlns="http://www.w3.org/2000/svg">
<g id="format quote">
<path id="combo shape" fill-rule="evenodd" clip-rule="evenodd" d="M8 0H16C20.4183 0 24 3.58172 24 8V22.1115C24 23.3534 23.7108 24.5783 23.1554 25.6892L17.4833 37.0334C16.5742 38.8515 14.716 40 12.6833 40C8.69388 40 6.09916 35.8017 7.88328 32.2334L12 24H8C3.58172 24 0 20.4183 0 16V8C0 3.58172 3.58172 0 8 0ZM44 0H52C56.4183 0 60 3.58172 60 8V22.1115C60 23.3534 59.7108 24.5783 59.1554 25.6892L53.4833 37.0334C52.5742 38.8515 50.716 40 48.6833 40C44.6939 40 42.0992 35.8017 43.8833 32.2334L48 24H44C39.5817 24 36 20.4183 36 16V8C36 3.58172 39.5817 0 44 0Z" fill="#6D7A8D"/>
</g>
</svg>
