<svg width="191" height="49" viewBox="0 0 191 49" fill="none" xmlns="http://www.w3.org/2000/svg">
<g id="Logo/default" clip-path="url(#clip0_3918_7225)">
<path id="Vector" d="M122.735 0C123.648 0.82668 124.2 1.90866 124.789 2.95417C126.53 6.05422 128.007 9.31231 129.82 12.3759C129.868 12.461 129.904 12.5582 129.953 12.6433C130.889 14.4547 130.217 15.3908 128.367 16.0595C127.347 16.4242 126.602 15.7799 125.978 15.0504C125.065 13.9806 124.548 12.692 124.116 11.3304C123.6 11.6221 123.48 12.1449 123.324 12.6312C122.255 16.181 121.21 19.7309 120.129 23.2686C117.835 30.8789 115.518 38.4771 113.224 46.0874C113.044 46.6831 112.912 47.291 112.804 47.911C112.756 48.2027 112.648 48.3122 112.347 48.3122C109.465 48.3 106.595 48.3 103.713 48.3122C103.449 48.3122 103.341 48.2271 103.256 47.9596C100.422 38.7689 97.24 29.6875 94.598 20.436C94.3818 19.6823 94.1417 18.9285 94.1777 18.1262C94.2257 16.7889 95.0784 15.8893 96.4114 15.8528C97.9125 15.8163 99.4016 15.7677 100.903 15.8771C102.284 15.9865 103.088 16.7646 103.545 17.9803C104.169 19.6458 104.481 21.3964 104.914 23.1106C105.718 26.3079 106.499 29.5173 107.292 32.7268C107.364 33.0429 107.4 33.2131 107.027 33.359C105.31 34.0155 104.493 35.8876 105.01 37.8571C105.466 39.6077 107.099 40.7262 108.865 40.5195C110.282 40.3493 111.387 39.705 111.927 38.3434C112.467 36.9696 112.359 35.6202 111.471 34.3802C111.11 33.8696 110.618 33.517 110.042 33.3347C109.753 33.2374 109.705 33.1037 109.729 32.8119C109.885 31.1342 110.414 29.5417 110.822 27.9248C112.455 21.5423 114.053 15.1599 115.674 8.78956C115.698 8.71661 115.698 8.63151 115.722 8.437C114.785 8.89897 113.92 9.31231 113.056 9.76212C112.503 10.0417 111.975 10.3821 111.435 10.6739C110.342 11.2574 109.525 11.0265 108.901 9.95663C108.576 9.40956 108.42 8.81387 108.24 8.21817C108.168 7.97503 108.252 7.80483 108.42 7.62248C108.961 7.01462 109.609 6.52834 110.306 6.13932C113.668 4.25497 117.055 2.38278 120.501 0.644324C121.03 0.376869 121.606 0.20667 122.147 0C122.339 0 122.531 0 122.735 0Z" fill="url(#paint0_linear_3918_7225)"/>
<path id="Vector_2" d="M190.394 47.5952C189.613 47.6803 188.893 48.0207 188.124 48.1301C185.854 48.4462 183.561 48.6164 181.411 47.6074C178.217 46.112 176.511 43.5347 176.487 39.9606C176.439 34.3562 176.463 28.7396 176.487 23.123C176.487 22.5638 176.331 22.4544 175.827 22.4787C175.01 22.5273 174.182 22.4787 173.365 22.503C173.029 22.5152 172.909 22.4058 172.921 22.0654C172.933 20.3148 172.945 18.552 172.921 16.8014C172.921 16.4002 173.065 16.3394 173.413 16.3516C174.278 16.3759 175.13 16.3394 175.995 16.3637C176.379 16.3759 176.499 16.2665 176.487 15.8653C176.463 13.9688 176.487 12.0723 176.475 10.1758C176.475 9.89616 176.475 9.70164 176.824 9.61654C179.634 8.92359 182.444 8.20632 185.242 7.50121C185.338 7.4769 185.434 7.46474 185.59 7.44043C185.59 8.3279 185.59 9.19105 185.59 10.0542C185.59 11.9872 185.602 13.9323 185.578 15.8653C185.578 16.2665 185.686 16.3759 186.071 16.3637C187.512 16.3394 188.953 16.3516 190.394 16.3516C190.394 18.4061 190.394 20.4728 190.394 22.5273C190.166 22.734 189.877 22.7097 189.601 22.7097C188.556 22.7097 187.524 22.7097 186.479 22.7097C185.854 22.7097 185.782 22.7705 185.782 23.4027C185.782 28.6059 185.782 33.8213 185.782 39.0245C185.782 39.5108 185.878 39.9849 186.071 40.4347C186.359 41.1276 186.851 41.5775 187.62 41.7112C188.292 41.8328 188.977 41.8449 189.649 41.772C189.913 41.7477 190.166 41.6869 190.394 41.8814C190.394 43.8022 190.394 45.6987 190.394 47.5952Z" fill="white"/>
<path id="Vector_3" d="M160.167 48.3727C157.741 48.3849 155.4 47.9351 153.154 47.0233C150.932 46.1115 151.161 45.7103 152.001 44.0569C152.53 43.0358 153.022 42.0024 153.286 40.884C153.394 40.4585 153.562 40.422 153.959 40.5071C154.727 40.6894 155.4 41.0906 156.12 41.3824C157.85 42.0753 159.579 42.124 161.32 41.431C162.449 40.9812 162.833 40.3734 162.797 39.1577C162.785 38.6714 162.749 38.1851 162.665 37.711C162.461 36.4466 161.801 35.547 160.576 35.0729C158.822 34.4042 157.081 33.6627 155.556 32.5564C152.95 30.672 151.305 26.8669 152.289 23.1103C153.454 18.6852 157.802 15.6702 161.825 15.8526C163.854 15.9498 165.92 15.8647 167.877 16.4847C168.994 16.8373 170.063 17.36 171.156 17.7977C171.384 17.8828 171.384 18.0044 171.36 18.211C171.3 18.6609 171.168 19.0742 170.999 19.4875C170.531 20.5938 170.039 21.7001 169.594 22.8186C169.438 23.2197 169.246 23.2319 168.898 23.1103C167.793 22.7213 166.784 22.0527 165.607 21.8582C164.767 21.7244 163.938 21.6515 163.122 21.9676C160.78 22.8672 160.323 25.87 162.281 27.5112C163.134 28.2285 164.13 28.6904 165.115 29.1889C166.544 29.9183 167.985 30.5869 169.258 31.596C171.156 33.1156 172.176 35.085 172.392 37.4921C172.597 39.7655 172.2 41.9051 170.855 43.8138C169.69 45.4672 168.105 46.537 166.268 47.2786C164.31 48.0566 162.269 48.3727 160.167 48.3727Z" fill="white"/>
<path id="Vector_4" d="M93.2289 25.4689C93.2289 32.8725 93.2169 40.2762 93.2409 47.6798C93.2409 48.2269 93.0848 48.3363 92.5804 48.3242C89.9384 48.2999 87.3085 48.2999 84.6665 48.3242C84.2221 48.3242 84.1021 48.2269 84.1021 47.7649C84.1141 32.8725 84.1141 17.9923 84.1021 3.0999C84.1021 2.62578 84.2462 2.54068 84.6785 2.55283C87.3325 2.57715 89.9985 2.57715 92.6525 2.55283C93.1208 2.55283 93.2409 2.67441 93.2409 3.14853C93.2169 10.5765 93.2289 18.0166 93.2289 25.4689Z" fill="white"/>
<path id="Vector_5" d="M28.9448 47.4365C26.1226 42.6345 23.2885 37.8446 20.4664 33.0425C19.986 32.2159 19.5657 31.3405 19.0974 30.4531C19.5777 30.368 19.986 30.3194 20.3703 30.2221C22.3398 29.7237 23.877 28.5323 25.258 27.0977C26.5069 25.8091 27.5157 24.3745 27.7919 22.5388C27.948 21.4325 27.936 20.3262 27.96 19.22C27.9961 15.8403 26.567 13.1536 24.0931 10.9896C22.0396 9.19038 19.5297 8.4488 16.9237 8.0233C12.8767 7.36682 8.84169 7.56133 4.83068 8.38801C3.58174 8.64331 2.34481 8.98371 1.20396 9.59156C0.735607 9.8347 0.351318 10.1265 0.351318 10.783C0.363327 23.1345 0.363327 35.4861 0.351318 47.8377C0.351318 48.251 0.483417 48.324 0.855697 48.324C3.59375 48.3118 6.3318 48.2996 9.06986 48.324C9.57424 48.324 9.73035 48.2267 9.73035 47.6796C9.70634 42.4521 9.71834 37.2246 9.71834 31.997C9.71834 31.7904 9.71834 31.5837 9.71834 31.377C9.91049 31.5472 10.0066 31.7174 10.1026 31.8876C12.9368 37.1151 15.7709 42.3427 18.593 47.5824C18.9653 48.2753 19.4817 48.5793 20.2743 48.5671C22.9523 48.5306 25.6303 48.5549 28.3083 48.5428C28.6565 48.5428 29.1249 48.7008 29.305 48.3361C29.4491 48.0443 29.1129 47.7283 28.9448 47.4365ZM18.2447 23.9004C17.7524 25.9914 16.3353 27.3044 14.3418 27.9609C12.9728 28.4107 11.5677 28.4593 10.1387 28.204C9.77839 28.1432 9.70634 27.9852 9.70634 27.6448C9.71834 25.3714 9.71834 23.0859 9.71834 20.8125C9.71834 18.5756 9.73035 16.3387 9.70634 14.1018C9.70634 13.7006 9.77839 13.5304 10.1987 13.5061C11.6158 13.421 13.0208 13.2022 14.4379 13.4332C16.5635 13.7736 17.9085 14.9528 18.3168 17.0682C18.7611 19.3294 18.7731 21.6392 18.2447 23.9004Z" fill="white"/>
<path id="Vector_6" d="M81.5802 36.1918C81.5922 36.1918 81.5922 36.1918 81.5802 36.1918C81.5922 33.9671 81.5922 31.7545 81.5922 29.5298C81.5922 27.5725 81.5802 25.6152 81.22 23.6822C80.7156 20.9712 79.5027 18.7343 77.0528 17.3727C74.7471 16.1084 72.1892 15.6099 69.6073 15.6464C67.7819 15.6707 65.9445 15.8166 64.1311 16.2056C62.0416 16.6554 59.952 17.0809 57.9825 17.9441C57.7904 18.0292 57.5142 18.0292 57.6703 18.4304C58.2708 19.9621 58.8352 21.5182 59.3876 23.0622C59.5077 23.3783 59.6158 23.4998 59.976 23.3418C61.4531 22.6489 63.0143 22.2234 64.5995 21.9437C66.629 21.579 68.6826 21.348 70.7001 22.0288C71.7929 22.3936 72.6816 23.0014 72.8857 24.2657C73.0178 25.0803 73.0058 25.9069 72.9818 26.7458C72.9698 27.0376 72.8617 27.1227 72.5855 27.1227C71.2885 27.1227 69.9915 27.2929 68.7066 27.4874C65.5842 27.9858 62.594 28.8733 59.916 30.636C57.9585 31.9125 56.4814 33.5902 55.941 35.9487C55.6408 37.286 55.7609 38.6354 55.8689 39.9848C56.1091 42.9998 57.6463 45.1516 60.2162 46.5618C62.4019 47.7653 64.8157 48.1544 67.2535 48.3003C71.973 48.5799 76.6325 48.203 81.0879 46.4281C81.4601 46.2822 81.5682 46.1363 81.5682 45.7473C81.5802 42.5621 81.5802 39.377 81.5802 36.1918ZM72.9698 37.0793C72.9698 38.7934 72.9578 40.5076 72.9698 42.2217C72.9698 42.55 72.9097 42.708 72.5374 42.781C71.2405 43.0362 69.9435 43.2065 68.6105 43.1214C66.3288 42.9755 64.9237 41.7354 64.5034 39.4621C64.2632 38.1734 64.3233 36.8848 64.7076 35.6326C65.1159 34.2953 65.9565 33.3349 67.2655 32.7878C68.9107 32.0949 70.616 31.6329 72.4054 31.4749C72.8497 31.4384 72.9818 31.5235 72.9698 31.9976C72.9578 33.6996 72.9698 35.3895 72.9698 37.0793Z" fill="white"/>
<path id="Vector_7" d="M149.467 23.0133C148.158 19.974 146.117 17.6034 142.97 16.4484C138.395 14.7586 134.012 15.5124 129.953 18.0167C126.962 19.8646 125.329 22.8309 124.44 26.1619C123.504 29.6753 123.54 33.2981 124.236 36.8358C124.993 40.7018 126.95 43.9234 130.265 46.1481C132.859 47.8866 135.837 48.4337 138.875 48.5309C140.953 48.5917 143.006 48.1297 145.048 47.765C146.465 47.5097 147.858 47.1937 149.203 46.6466C149.767 46.4156 149.96 46.0874 149.803 45.4309C149.407 43.8018 148.591 42.3187 148.23 40.6896C148.182 40.4586 148.05 40.3979 147.846 40.483C147.678 40.5437 147.51 40.5924 147.342 40.6532C144.387 41.6865 141.373 42.2822 138.227 41.7838C136.389 41.492 134.804 40.7383 133.771 39.0606C133.063 37.9057 132.907 36.5684 132.462 35.2797C132.919 35.2433 133.267 35.2189 133.627 35.1703C139.38 34.4895 145.06 33.286 150.824 32.7389C151.1 32.7146 151.184 32.6295 151.184 32.3377C151.124 29.1404 150.74 25.9917 149.467 23.0133ZM142.214 29.1769C139.055 29.3714 135.981 30.1495 132.859 30.5385C131.958 30.6479 131.958 30.66 131.982 29.2985C132.054 27.8518 132.306 26.1376 132.931 24.4721C134.108 21.3842 137.806 20.1807 140.316 22.1015C141.241 22.8066 141.709 23.8035 142.034 24.8733C142.418 26.1376 142.55 27.4384 142.55 28.7514C142.55 29.0188 142.514 29.1647 142.214 29.1769Z" fill="white"/>
<path id="Vector_8" d="M53.5152 23.5971C52.4344 20.4849 50.561 18.0778 47.4747 16.7891C45.1089 15.8044 42.635 15.4518 40.0891 15.7071C34.9853 16.2177 31.2745 18.7586 29.1729 23.4998C27.1074 28.1317 26.9753 32.958 28.2362 37.8087C28.9808 40.6656 30.3859 43.1821 32.6436 45.1394C35.3216 47.4492 38.516 48.3489 41.9505 48.4096C45.8895 48.4826 49.7564 47.899 53.4311 46.3673C53.6833 46.2578 53.7434 46.1849 53.6833 45.8931C53.299 44.2398 52.6506 42.6837 52.0741 41.0911C51.858 40.4954 51.5938 40.3495 50.9933 40.5683C48.9037 41.3342 46.8142 42.0758 44.5325 41.8813C43.896 41.8813 43.2475 41.8935 42.611 41.8813C39.0564 41.8327 36.6786 38.7205 36.3423 35.6934C36.2943 35.3043 36.4504 35.2314 36.7867 35.1949C39.2605 34.8545 41.7344 34.502 44.1962 34.1494C47.5828 33.6631 50.9573 33.189 54.3438 32.7149C54.62 32.6784 54.7641 32.6298 54.7521 32.2894C54.7041 29.3474 54.4879 26.4175 53.5152 23.5971ZM45.7814 29.1893C42.599 29.6513 39.4286 30.1254 36.2463 30.6117C35.874 30.6725 35.7299 30.5995 35.7659 30.1984C35.8019 29.8215 35.7779 29.4325 35.7779 29.0556C35.886 27.3415 36.0901 25.6395 36.8107 24.059C37.9515 21.5669 40.8577 20.497 43.3316 21.6276C44.3764 22.1018 45.0368 22.9528 45.4331 23.9983C46.0216 25.5422 46.1177 27.1713 46.1537 28.8125C46.1777 29.1042 46.0456 29.1529 45.7814 29.1893Z" fill="white"/>
</g>
<defs>
<linearGradient id="paint0_linear_3918_7225" x1="124.244" y1="-1.64161" x2="103.699" y2="52.6949" gradientUnits="userSpaceOnUse">
<stop stop-color="#F35C35"/>
<stop offset="1" stop-color="#FE8B1A"/>
<stop offset="1" stop-color="#FE8B1A"/>
</linearGradient>
<clipPath id="clip0_3918_7225">
<rect width="190.043" height="48.5918" fill="white" transform="translate(0.351318)"/>
</clipPath>
</defs>
</svg>
