<svg width="48" height="48" viewBox="0 0 48 48" fill="none" xmlns="http://www.w3.org/2000/svg">
<rect width="48" height="48" rx="24" fill="#FFEDEA"/>
<path d="M24 27.25C22.21 27.25 20.75 25.79 20.75 24C20.75 22.21 22.21 20.75 24 20.75C25.79 20.75 27.25 22.21 27.25 24C27.25 25.79 25.79 27.25 24 27.25ZM24 22.25C23.04 22.25 22.25 23.04 22.25 24C22.25 24.96 23.04 25.75 24 25.75C24.96 25.75 25.75 24.96 25.75 24C25.75 23.04 24.96 22.25 24 22.25Z" fill="#F35C35"/>
<path d="M30.5 27.25C30.09 27.25 29.75 26.91 29.75 26.5V21.5C29.75 21.09 30.09 20.75 30.5 20.75C30.91 20.75 31.25 21.09 31.25 21.5V26.5C31.25 26.91 30.91 27.25 30.5 27.25Z" fill="#F35C35"/>
<path d="M17 34.75C15.34 34.75 13.78 33.87 12.94 32.44C12.49 31.72 12.25 30.87 12.25 30C12.25 27.38 14.38 25.25 17 25.25C19.62 25.25 21.75 27.38 21.75 30C21.75 30.87 21.51 31.72 21.06 32.45C20.22 33.87 18.66 34.75 17 34.75ZM17 26.75C15.21 26.75 13.75 28.21 13.75 30C13.75 30.59 13.91 31.17 14.22 31.67C14.8 32.65 15.87 33.25 17 33.25C18.13 33.25 19.2 32.65 19.78 31.68C20.09 31.17 20.25 30.6 20.25 30C20.25 28.21 18.79 26.75 17 26.75Z" fill="#F35C35"/>
<path d="M16.4299 31.7396C16.2399 31.7396 16.0499 31.6696 15.8999 31.5196L14.9099 30.5296C14.6199 30.2396 14.6199 29.7595 14.9099 29.4695C15.1999 29.1795 15.6799 29.1795 15.9699 29.4695L16.4499 29.9496L18.0499 28.4695C18.3499 28.1895 18.8299 28.2096 19.1099 28.5096C19.3899 28.8096 19.3699 29.2896 19.0699 29.5696L16.9399 31.5396C16.7899 31.6696 16.6099 31.7396 16.4299 31.7396Z" fill="#F35C35"/>
<path d="M29 32.75H20.5C20.09 32.75 19.75 32.41 19.75 32C19.75 31.59 20.09 31.25 20.5 31.25H29C31.86 31.25 33.25 29.86 33.25 27V21C33.25 18.14 31.86 16.75 29 16.75H19C16.14 16.75 14.75 18.14 14.75 21V27.3C14.75 27.71 14.41 28.05 14 28.05C13.59 28.05 13.25 27.71 13.25 27.3V21C13.25 17.35 15.35 15.25 19 15.25H29C32.65 15.25 34.75 17.35 34.75 21V27C34.75 30.65 32.65 32.75 29 32.75Z" fill="#F35C35"/>
</svg>
