<svg width="86" height="16" viewBox="0 0 86 16" fill="none" xmlns="http://www.w3.org/2000/svg">
<path fill-rule="evenodd" clip-rule="evenodd" d="M8.22335 0.860967C7.72747 0.625772 7.15219 0.625771 6.65631 0.860966C6.31302 1.02378 6.06951 1.33198 5.85373 1.68032C5.63679 2.03054 5.39877 2.50659 5.10237 3.09942L5.10236 3.09944L5.09076 3.12265L4.85186 3.60045C4.64861 4.00695 4.58951 4.11348 4.5153 4.19115C4.43876 4.27126 4.34699 4.33526 4.24536 4.37938C4.14682 4.42216 4.02643 4.44079 3.57473 4.49099L3.35787 4.51508L3.33184 4.51798H3.33184C2.61977 4.59709 2.05094 4.66029 1.62029 4.74788C1.19557 4.83427 0.799742 4.96216 0.522665 5.24486C0.126232 5.64932 -0.0604009 6.21468 0.0173119 6.77568C0.0716268 7.16776 0.313515 7.5062 0.603331 7.82848C0.89719 8.15522 1.31659 8.54472 1.84161 9.03224L1.86079 9.05006L2.08975 9.26263C2.48744 9.63192 2.58941 9.73638 2.64654 9.84762C2.70552 9.96251 2.73694 10.0895 2.7383 10.2186C2.73961 10.3435 2.69726 10.486 2.51513 11.0051L2.50652 11.0296L2.50651 11.0297C2.23773 11.7957 2.02488 12.4023 1.90403 12.8743C1.78663 13.3327 1.72085 13.783 1.8739 14.1728C2.08927 14.7214 2.55587 15.1325 3.12721 15.2771C3.53207 15.3797 3.96656 15.2603 4.40268 15.0882C4.85039 14.9116 5.41731 14.6282 6.13211 14.2708L6.15551 14.2591L6.7113 13.9812C7.08604 13.7938 7.18837 13.7477 7.28657 13.7292C7.38784 13.7103 7.49183 13.7103 7.59309 13.7292C7.69129 13.7477 7.79362 13.7938 8.16836 13.9812L8.72415 14.2591L8.74762 14.2708C9.46239 14.6282 10.0293 14.9116 10.477 15.0882C10.9131 15.2603 11.3476 15.3797 11.7524 15.2771C12.3238 15.1325 12.7904 14.7214 13.0058 14.1728C13.1588 13.783 13.093 13.3327 12.9756 12.8743C12.8548 12.4023 12.6419 11.7957 12.3731 11.0296V11.0296L12.3645 11.0051C12.1824 10.486 12.1401 10.3435 12.1413 10.2186C12.1427 10.0895 12.1741 9.96251 12.2332 9.84762C12.2903 9.73638 12.3922 9.63192 12.7899 9.26263L13.0189 9.05006L13.0381 9.03217C13.5631 8.54466 13.9825 8.15522 14.2763 7.82848C14.5662 7.5062 14.808 7.16776 14.8624 6.77568C14.9401 6.21468 14.7535 5.64932 14.357 5.24486C14.0799 4.96216 13.6841 4.83427 13.2594 4.74788C12.8287 4.66029 12.2599 4.59709 11.5478 4.51798L11.5218 4.51508L11.305 4.49099C10.8532 4.44079 10.7328 4.42216 10.6343 4.37938C10.5327 4.33526 10.4409 4.27126 10.3644 4.19115C10.2902 4.11348 10.2311 4.00695 10.0278 3.60044L9.78892 3.12266L9.77728 3.09943C9.48087 2.50659 9.2429 2.03054 9.02595 1.68032C8.81019 1.33198 8.5667 1.02379 8.22335 0.860967Z" fill="#FFC250"/>
<path fill-rule="evenodd" clip-rule="evenodd" d="M25.863 0.860967C25.3671 0.625772 24.7918 0.625771 24.296 0.860966C23.9527 1.02378 23.7092 1.33198 23.4934 1.68032C23.2764 2.03054 23.0384 2.50659 22.742 3.09942L22.742 3.09944L22.7304 3.12265L22.4915 3.60045C22.2883 4.00695 22.2292 4.11348 22.155 4.19115C22.0784 4.27126 21.9866 4.33526 21.885 4.37938C21.7865 4.42216 21.6661 4.44079 21.2144 4.49099L20.9975 4.51508L20.9715 4.51798H20.9715C20.2594 4.59709 19.6906 4.66029 19.2599 4.74788C18.8352 4.83427 18.4394 4.96216 18.1623 5.24486C17.7659 5.64932 17.5792 6.21468 17.657 6.77568C17.7113 7.16776 17.9532 7.5062 18.243 7.82848C18.5368 8.15522 18.9562 8.54472 19.4813 9.03224L19.5004 9.05006L19.7294 9.26263C20.1271 9.63192 20.2291 9.73638 20.2862 9.84762C20.3452 9.96251 20.3766 10.0895 20.3779 10.2186C20.3793 10.3435 20.3369 10.486 20.1548 11.0051L20.1462 11.0296L20.1462 11.0297C19.8774 11.7957 19.6645 12.4023 19.5437 12.8743C19.4263 13.3327 19.3605 13.783 19.5135 14.1728C19.7289 14.7214 20.1955 15.1325 20.7669 15.2771C21.1717 15.3797 21.6062 15.2603 22.0423 15.0882C22.49 14.9116 23.057 14.6282 23.7718 14.2708L23.7952 14.2591L24.3509 13.9812C24.7257 13.7938 24.828 13.7477 24.9262 13.7292C25.0275 13.7103 25.1315 13.7103 25.2327 13.7292C25.3309 13.7477 25.4333 13.7938 25.808 13.9812L26.3638 14.2591L26.3873 14.2708C27.102 14.6282 27.6689 14.9116 28.1166 15.0882C28.5527 15.2603 28.9872 15.3797 29.3921 15.2771C29.9634 15.1325 30.4301 14.7214 30.6454 14.1728C30.7985 13.783 30.7327 13.3327 30.6153 12.8743C30.4944 12.4023 30.2816 11.7957 30.0128 11.0296V11.0296L30.0042 11.0051C29.8221 10.486 29.7797 10.3435 29.781 10.2186C29.7824 10.0895 29.8138 9.96251 29.8728 9.84762C29.9299 9.73638 30.0318 9.63192 30.4296 9.26263L30.6585 9.05006L30.6777 9.03217C31.2027 8.54466 31.6222 8.15522 31.916 7.82848C32.2058 7.5062 32.4477 7.16776 32.502 6.77568C32.5797 6.21468 32.3931 5.64932 31.9966 5.24486C31.7196 4.96216 31.3237 4.83427 30.899 4.74788C30.4684 4.66029 29.8995 4.59709 29.1875 4.51798L29.1614 4.51508L28.9446 4.49099C28.4929 4.44079 28.3725 4.42216 28.274 4.37938C28.1723 4.33526 28.0806 4.27126 28.004 4.19115C27.9298 4.11348 27.8707 4.00695 27.6675 3.60044L27.4286 3.12266L27.4169 3.09943C27.1205 2.50659 26.8826 2.03054 26.6656 1.68032C26.4498 1.33198 26.2064 1.02379 25.863 0.860967Z" fill="#FFC250"/>
<path fill-rule="evenodd" clip-rule="evenodd" d="M43.5026 0.860967C43.0068 0.625772 42.4315 0.625771 41.9356 0.860966C41.5923 1.02378 41.3488 1.33198 41.133 1.68032C40.9161 2.03054 40.6781 2.50659 40.3817 3.09942L40.3817 3.09944L40.3701 3.12265L40.1312 3.60045C39.9279 4.00695 39.8688 4.11348 39.7946 4.19115C39.7181 4.27126 39.6263 4.33526 39.5247 4.37938C39.4261 4.42216 39.3057 4.44079 38.854 4.49099L38.6372 4.51508L38.6111 4.51798H38.6111C37.8991 4.59709 37.3302 4.66029 36.8996 4.74788C36.4749 4.83427 36.079 4.96216 35.802 5.24486C35.4055 5.64932 35.2189 6.21468 35.2966 6.77568C35.3509 7.16776 35.5928 7.5062 35.8826 7.82848C36.1765 8.15522 36.5959 8.54472 37.1209 9.03224L37.1401 9.05006L37.369 9.26263C37.7667 9.63192 37.8687 9.73638 37.9258 9.84762C37.9848 9.96251 38.0162 10.0895 38.0176 10.2186C38.0189 10.3435 37.9766 10.486 37.7944 11.0051L37.7858 11.0296L37.7858 11.0297C37.517 11.7957 37.3042 12.4023 37.1833 12.8743C37.0659 13.3327 37.0001 13.783 37.1532 14.1728C37.3686 14.7214 37.8352 15.1325 38.4065 15.2771C38.8114 15.3797 39.2459 15.2603 39.682 15.0882C40.1297 14.9116 40.6966 14.6282 41.4114 14.2708L41.4348 14.2591L41.9906 13.9812C42.3653 13.7938 42.4677 13.7477 42.5659 13.7292C42.6671 13.7103 42.7711 13.7103 42.8724 13.7292C42.9706 13.7477 43.0729 13.7938 43.4477 13.9812L44.0034 14.2591L44.0269 14.2708C44.7417 14.6282 45.3086 14.9116 45.7563 15.0882C46.1924 15.2603 46.6269 15.3797 47.0317 15.2771C47.6031 15.1325 48.0697 14.7214 48.2851 14.1728C48.4381 13.783 48.3723 13.3327 48.2549 12.8743C48.1341 12.4023 47.9212 11.7957 47.6524 11.0296V11.0296L47.6438 11.0051C47.4617 10.486 47.4194 10.3435 47.4206 10.2186C47.422 10.0895 47.4534 9.96251 47.5125 9.84762C47.5696 9.73638 47.6715 9.63192 48.0692 9.26263L48.2982 9.05006L48.3174 9.03217C48.8424 8.54466 49.2618 8.15522 49.5556 7.82848C49.8455 7.5062 50.0873 7.16776 50.1417 6.77568C50.2194 6.21468 50.0328 5.64932 49.6363 5.24486C49.3592 4.96216 48.9634 4.83427 48.5387 4.74788C48.108 4.66029 47.5392 4.59709 46.8271 4.51798L46.8011 4.51508L46.5843 4.49099C46.1325 4.44079 46.0121 4.42216 45.9136 4.37938C45.812 4.33526 45.7202 4.27126 45.6437 4.19115C45.5695 4.11348 45.5104 4.00695 45.3071 3.60044L45.0682 3.12266L45.0566 3.09943C44.7602 2.50659 44.5222 2.03054 44.3052 1.68032C44.0895 1.33198 43.846 1.02379 43.5026 0.860967Z" fill="#FFC250"/>
<path fill-rule="evenodd" clip-rule="evenodd" d="M61.1423 0.860967C60.6464 0.625772 60.0711 0.625771 59.5753 0.860966C59.232 1.02378 58.9885 1.33198 58.7727 1.68032C58.5557 2.03054 58.3177 2.50659 58.0213 3.09942L58.0213 3.09944L58.0097 3.12265L57.7708 3.60045C57.5676 4.00695 57.5085 4.11348 57.4342 4.19115C57.3577 4.27126 57.2659 4.33526 57.1643 4.37938C57.0658 4.42216 56.9454 4.44079 56.4937 4.49099L56.2768 4.51508L56.2508 4.51798H56.2508C55.5387 4.59709 54.9699 4.66029 54.5392 4.74788C54.1145 4.83427 53.7187 4.96216 53.4416 5.24486C53.0452 5.64932 52.8585 6.21468 52.9363 6.77568C52.9906 7.16776 53.2325 7.5062 53.5223 7.82848C53.8161 8.15522 54.2355 8.54472 54.7606 9.03224L54.7797 9.05006L55.0087 9.26263C55.4064 9.63192 55.5084 9.73638 55.5655 9.84762C55.6245 9.96251 55.6559 10.0895 55.6572 10.2186C55.6586 10.3435 55.6162 10.486 55.4341 11.0051L55.4255 11.0296L55.4255 11.0297C55.1567 11.7957 54.9438 12.4023 54.823 12.8743C54.7056 13.3327 54.6398 13.783 54.7928 14.1728C55.0082 14.7214 55.4748 15.1325 56.0462 15.2771C56.451 15.3797 56.8855 15.2603 57.3216 15.0882C57.7693 14.9116 58.3363 14.6282 59.0511 14.2708L59.0745 14.2591L59.6302 13.9812C60.005 13.7938 60.1073 13.7477 60.2055 13.7292C60.3068 13.7103 60.4108 13.7103 60.512 13.7292C60.6102 13.7477 60.7126 13.7938 61.0873 13.9812L61.6431 14.2591L61.6666 14.2708C62.3813 14.6282 62.9482 14.9116 63.3959 15.0882C63.832 15.2603 64.2665 15.3797 64.6714 15.2771C65.2427 15.1325 65.7094 14.7214 65.9247 14.1728C66.0778 13.783 66.0119 13.3327 65.8946 12.8743C65.7737 12.4023 65.5609 11.7957 65.2921 11.0296V11.0296L65.2835 11.0051C65.1014 10.486 65.059 10.3435 65.0603 10.2186C65.0617 10.0895 65.0931 9.96251 65.1521 9.84762C65.2092 9.73638 65.3111 9.63192 65.7089 9.26263L65.9378 9.05006L65.957 9.03217C66.482 8.54466 66.9015 8.15522 67.1953 7.82848C67.4851 7.5062 67.727 7.16776 67.7813 6.77568C67.859 6.21468 67.6724 5.64932 67.2759 5.24486C66.9989 4.96216 66.603 4.83427 66.1783 4.74788C65.7477 4.66029 65.1788 4.59709 64.4668 4.51798L64.4407 4.51508L64.2239 4.49099C63.7722 4.44079 63.6518 4.42216 63.5533 4.37938C63.4516 4.33526 63.3599 4.27126 63.2833 4.19115C63.2091 4.11348 63.15 4.00695 62.9468 3.60044L62.7079 3.12266L62.6962 3.09943C62.3998 2.50659 62.1618 2.03054 61.9449 1.68032C61.7291 1.33198 61.4856 1.02379 61.1423 0.860967Z" fill="#FFC250"/>
<path fill-rule="evenodd" clip-rule="evenodd" d="M78.7819 0.860967C78.2861 0.625772 77.7108 0.625771 77.2149 0.860966C76.8716 1.02378 76.6281 1.33198 76.4123 1.68032C76.1954 2.03054 75.9574 2.50659 75.661 3.09942L75.661 3.09944L75.6493 3.12265L75.4105 3.60045C75.2072 4.00695 75.1481 4.11348 75.0739 4.19115C74.9974 4.27126 74.9056 4.33526 74.8039 4.37938C74.7054 4.42216 74.585 4.44079 74.1333 4.49099L73.9165 4.51508L73.8904 4.51798H73.8904C73.1784 4.59709 72.6095 4.66029 72.1789 4.74788C71.7542 4.83427 71.3583 4.96216 71.0813 5.24486C70.6848 5.64932 70.4982 6.21468 70.5759 6.77568C70.6302 7.16776 70.8721 7.5062 71.1619 7.82848C71.4558 8.15522 71.8752 8.54472 72.4002 9.03224L72.4194 9.05006L72.6483 9.26263C73.046 9.63192 73.148 9.73638 73.2051 9.84762C73.2641 9.96251 73.2955 10.0895 73.2969 10.2186C73.2982 10.3435 73.2559 10.486 73.0737 11.0051L73.0651 11.0296L73.0651 11.0297C72.7963 11.7957 72.5835 12.4023 72.4626 12.8743C72.3452 13.3327 72.2794 13.783 72.4325 14.1728C72.6479 14.7214 73.1145 15.1325 73.6858 15.2771C74.0907 15.3797 74.5252 15.2603 74.9613 15.0882C75.409 14.9116 75.9759 14.6282 76.6907 14.2708L76.7141 14.2591L77.2699 13.9812C77.6446 13.7938 77.747 13.7477 77.8452 13.7292C77.9464 13.7103 78.0504 13.7103 78.1517 13.7292C78.2499 13.7477 78.3522 13.7938 78.727 13.9812L79.2827 14.2591L79.3062 14.2708C80.021 14.6282 80.5879 14.9116 81.0356 15.0882C81.4717 15.2603 81.9062 15.3797 82.311 15.2771C82.8824 15.1325 83.349 14.7214 83.5644 14.1728C83.7174 13.783 83.6516 13.3327 83.5342 12.8743C83.4134 12.4023 83.2005 11.7957 82.9317 11.0296V11.0296L82.9231 11.0051C82.741 10.486 82.6987 10.3435 82.6999 10.2186C82.7013 10.0895 82.7327 9.96251 82.7918 9.84762C82.8489 9.73638 82.9508 9.63192 83.3485 9.26263L83.5775 9.05006L83.5967 9.03217C84.1217 8.54466 84.5411 8.15522 84.8349 7.82848C85.1247 7.5062 85.3666 7.16776 85.421 6.77568C85.4987 6.21468 85.312 5.64932 84.9156 5.24486C84.6385 4.96216 84.2427 4.83427 83.818 4.74788C83.3873 4.66029 82.8185 4.59709 82.1064 4.51798L82.0804 4.51508L81.8636 4.49099C81.4118 4.44079 81.2914 4.42216 81.1929 4.37938C81.0913 4.33526 80.9995 4.27126 80.923 4.19115C80.8488 4.11348 80.7897 4.00695 80.5864 3.60044L80.3475 3.12266L80.3359 3.09943C80.0395 2.50659 79.8015 2.03054 79.5845 1.68032C79.3688 1.33198 79.1253 1.02379 78.7819 0.860967Z" fill="#FFC250"/>
</svg>
