<svg width="48" height="48" viewBox="0 0 48 48" fill="none" xmlns="http://www.w3.org/2000/svg">
<rect width="48" height="48" rx="24" fill="#FFEDEA"/>
<path d="M34 34.75H14C13.59 34.75 13.25 34.41 13.25 34C13.25 33.59 13.59 33.25 14 33.25H34C34.41 33.25 34.75 33.59 34.75 34C34.75 34.41 34.41 34.75 34 34.75Z" fill="#F35C35"/>
<path d="M15.7002 33.9997H14.2002L14.2502 21.9697C14.2502 21.1197 14.6402 20.3297 15.3102 19.8097L22.3102 14.3597C23.3002 13.5897 24.6902 13.5897 25.6902 14.3597L32.6902 19.7997C33.3502 20.3197 33.7502 21.1297 33.7502 21.9697V33.9997H32.2502V21.9797C32.2502 21.5997 32.0702 21.2297 31.7702 20.9897L24.7702 15.5497C24.3202 15.1997 23.6902 15.1997 23.2302 15.5497L16.2302 20.9997C15.9302 21.2297 15.7502 21.5997 15.7502 21.9797L15.7002 33.9997Z" fill="#F35C35"/>
<path d="M26.5 34.75H21.5C21.09 34.75 20.75 34.41 20.75 34V30.5C20.75 29.26 21.76 28.25 23 28.25H25C26.24 28.25 27.25 29.26 27.25 30.5V34C27.25 34.41 26.91 34.75 26.5 34.75ZM22.25 33.25H25.75V30.5C25.75 30.09 25.41 29.75 25 29.75H23C22.59 29.75 22.25 30.09 22.25 30.5V33.25Z" fill="#F35C35"/>
<path d="M21.5 26.5H19.5C18.54 26.5 17.75 25.71 17.75 24.75V23.25C17.75 22.29 18.54 21.5 19.5 21.5H21.5C22.46 21.5 23.25 22.29 23.25 23.25V24.75C23.25 25.71 22.46 26.5 21.5 26.5ZM19.5 23C19.36 23 19.25 23.11 19.25 23.25V24.75C19.25 24.89 19.36 25 19.5 25H21.5C21.64 25 21.75 24.89 21.75 24.75V23.25C21.75 23.11 21.64 23 21.5 23H19.5Z" fill="#F35C35"/>
<path d="M28.5 26.5H26.5C25.54 26.5 24.75 25.71 24.75 24.75V23.25C24.75 22.29 25.54 21.5 26.5 21.5H28.5C29.46 21.5 30.25 22.29 30.25 23.25V24.75C30.25 25.71 29.46 26.5 28.5 26.5ZM26.5 23C26.36 23 26.25 23.11 26.25 23.25V24.75C26.25 24.89 26.36 25 26.5 25H28.5C28.64 25 28.75 24.89 28.75 24.75V23.25C28.75 23.11 28.64 23 28.5 23H26.5Z" fill="#F35C35"/>
<path d="M31.0001 19.75C30.5901 19.75 30.2501 19.42 30.2501 19.01L30.2301 16.75H26.5801C26.1701 16.75 25.8301 16.41 25.8301 16C25.8301 15.59 26.1701 15.25 26.5801 15.25H30.9801C31.3901 15.25 31.7301 15.58 31.7301 15.99L31.7601 18.99C31.7501 19.41 31.4201 19.75 31.0001 19.75C31.0101 19.75 31.0001 19.75 31.0001 19.75Z" fill="#F35C35"/>
</svg>
