<svg width="110" height="29" viewBox="0 0 110 29" fill="none" xmlns="http://www.w3.org/2000/svg">
<g id="Logo/default" clip-path="url(#clip0_4063_16126)">
<path id="Vector" d="M70.9505 0C71.475 0.48223 71.7924 1.11338 72.1305 1.72326C73.1311 3.53163 73.9799 5.43218 75.0219 7.21927C75.0495 7.26891 75.0702 7.32564 75.0978 7.37528C75.636 8.43194 75.2496 8.97799 74.1869 9.36803C73.6003 9.58078 73.1725 9.20492 72.8137 8.77942C72.2892 8.15536 71.9925 7.40365 71.7441 6.60939C71.4474 6.77959 71.3784 7.08453 71.2887 7.36819C70.6745 9.43894 70.0742 11.5097 69.4531 13.5734C68.1351 18.0127 66.8033 22.445 65.4853 26.8843C65.3818 27.2318 65.3059 27.5864 65.2438 27.9481C65.2162 28.1183 65.1541 28.1821 64.9816 28.1821C63.3255 28.175 61.6762 28.175 60.0201 28.1821C59.8683 28.1821 59.8062 28.1325 59.7579 27.9764C58.1294 22.6152 56.3007 17.3177 54.7826 11.921C54.6584 11.4813 54.5204 11.0417 54.5411 10.5736C54.5687 9.79353 55.0586 9.26875 55.8246 9.24747C56.6872 9.2262 57.5428 9.19783 58.4054 9.26165C59.199 9.32548 59.6613 9.77934 59.9235 10.4885C60.2823 11.4601 60.4617 12.4812 60.7102 13.4812C61.1725 15.3463 61.621 17.2185 62.0765 19.0906C62.1179 19.275 62.1386 19.3743 61.9247 19.4594C60.9379 19.8424 60.4686 20.9345 60.7654 22.0833C61.0276 23.1045 61.9661 23.7569 62.9804 23.6364C63.7947 23.5371 64.4295 23.1612 64.7401 22.367C65.0506 21.5656 64.9885 20.7784 64.4779 20.0551C64.2708 19.7572 63.9879 19.5516 63.6567 19.4452C63.4911 19.3885 63.4635 19.3105 63.4773 19.1403C63.567 18.1616 63.8706 17.2326 64.1052 16.2894C65.0437 12.5663 65.9615 8.84325 66.893 5.12724C66.9068 5.08469 66.9068 5.03505 66.9206 4.92158C66.3824 5.19107 65.8856 5.43218 65.3887 5.69457C65.0713 5.85768 64.7677 6.05624 64.4572 6.22644C63.8292 6.56684 63.36 6.4321 63.0011 5.80804C62.8148 5.48891 62.7251 5.14142 62.6216 4.79393C62.5802 4.6521 62.6285 4.55282 62.7251 4.44644C63.0356 4.09186 63.4083 3.8082 63.8085 3.58127C65.7406 2.48207 67.6866 1.38996 69.667 0.375856C69.9707 0.21984 70.3019 0.120558 70.6124 0C70.7228 0 70.8332 0 70.9505 0Z" fill="url(#paint0_linear_4063_16126)"/>
<path id="Vector_2" d="M109.828 27.7635C109.38 27.8131 108.966 28.0117 108.524 28.0755C107.22 28.2599 105.902 28.3592 104.667 27.7705C102.831 26.8983 101.851 25.3949 101.837 23.3099C101.81 20.0407 101.823 16.7644 101.837 13.488C101.837 13.1618 101.748 13.098 101.458 13.1122C100.989 13.1405 100.512 13.1122 100.043 13.1264C99.8499 13.1335 99.7809 13.0696 99.7878 12.8711C99.7947 11.8499 99.8016 10.8216 99.7878 9.80039C99.7878 9.56637 99.8706 9.53091 100.071 9.538C100.568 9.55218 101.058 9.53091 101.554 9.54509C101.775 9.55218 101.844 9.48836 101.837 9.25434C101.823 8.14804 101.837 7.04175 101.83 5.93546C101.83 5.77235 101.83 5.65888 102.031 5.60924C103.645 5.20502 105.26 4.78662 106.868 4.3753C106.923 4.36112 106.978 4.35403 107.068 4.33984C107.068 4.85753 107.068 5.36104 107.068 5.86454C107.068 6.99211 107.075 8.12677 107.061 9.25434C107.061 9.48836 107.123 9.55218 107.344 9.54509C108.172 9.53091 109 9.538 109.828 9.538C109.828 10.7365 109.828 11.9421 109.828 13.1405C109.697 13.2611 109.531 13.2469 109.373 13.2469C108.772 13.2469 108.179 13.2469 107.579 13.2469C107.22 13.2469 107.178 13.2824 107.178 13.6511C107.178 16.6864 107.178 19.7287 107.178 22.7639C107.178 23.0475 107.234 23.3241 107.344 23.5865C107.51 23.9907 107.792 24.2531 108.234 24.3311C108.621 24.402 109.014 24.4091 109.4 24.3666C109.552 24.3524 109.697 24.3169 109.828 24.4304C109.828 25.5509 109.828 26.6572 109.828 27.7635Z" fill="white"/>
<path id="Vector_3" d="M92.4595 28.2178C91.0656 28.2249 89.72 27.9625 88.4296 27.4306C87.153 26.8988 87.2841 26.6648 87.7672 25.7003C88.0708 25.1046 88.3537 24.5018 88.5055 23.8494C88.5676 23.6012 88.6642 23.5799 88.8919 23.6295C89.3336 23.7359 89.72 23.9699 90.134 24.1401C91.1277 24.5444 92.1214 24.5727 93.122 24.1685C93.7706 23.9061 93.9914 23.5515 93.9707 22.8424C93.9638 22.5587 93.9431 22.275 93.8948 21.9985C93.7775 21.2609 93.398 20.7362 92.6941 20.4596C91.6867 20.0695 90.6861 19.637 89.8097 18.9916C88.3123 17.8924 87.3669 15.6727 87.9328 13.4814C88.6021 10.9001 91.1001 9.14136 93.4118 9.24774C94.578 9.30447 95.7649 9.25483 96.8897 9.6165C97.5314 9.82216 98.1456 10.1271 98.7735 10.3824C98.9046 10.432 98.9046 10.503 98.8908 10.6235C98.8563 10.8859 98.7804 11.127 98.6838 11.3681C98.4147 12.0135 98.1318 12.6588 97.8764 13.3112C97.7867 13.5453 97.6763 13.5524 97.4762 13.4814C96.8414 13.2545 96.2617 12.8645 95.5855 12.751C95.1024 12.673 94.6263 12.6304 94.1571 12.8148C92.8114 13.3396 92.5492 15.0912 93.674 16.0486C94.164 16.467 94.7367 16.7365 95.3025 17.0272C96.1237 17.4527 96.9518 17.8428 97.6832 18.4314C98.7735 19.3178 99.36 20.4667 99.4843 21.8708C99.6016 23.197 99.3738 24.4451 98.601 25.5585C97.9316 26.5229 97.0208 27.147 95.965 27.5796C94.8402 28.0334 93.6671 28.2178 92.4595 28.2178Z" fill="white"/>
<path id="Vector_4" d="M53.9959 14.8566C53.9959 19.1754 53.989 23.4942 54.0028 27.813C54.0028 28.1321 53.9131 28.1959 53.6233 28.1889C52.1052 28.1747 50.594 28.1747 49.0758 28.1889C48.8205 28.1889 48.7515 28.1321 48.7515 27.8626C48.7584 19.1754 48.7584 10.4953 48.7515 1.80803C48.7515 1.53146 48.8343 1.48182 49.0827 1.48891C50.6078 1.50309 52.1397 1.50309 53.6647 1.48891C53.9338 1.48891 54.0028 1.55983 54.0028 1.8364C53.989 6.16938 53.9959 10.5094 53.9959 14.8566Z" fill="white"/>
<path id="Vector_5" d="M17.0574 27.6717C15.4358 24.8705 13.8073 22.0764 12.1857 19.2752C11.9096 18.793 11.6681 18.2824 11.399 17.7647C11.675 17.7151 11.9096 17.6867 12.1305 17.63C13.2621 17.3392 14.1454 16.6442 14.939 15.8074C15.6566 15.0557 16.2363 14.2189 16.395 13.1481C16.4847 12.5027 16.4778 11.8574 16.4916 11.212C16.5123 9.24058 15.6911 7.67333 14.2696 6.41102C13.0896 5.36146 11.6474 4.92887 10.15 4.68067C7.82453 4.29772 5.50595 4.41118 3.20117 4.89341C2.48352 5.04234 1.77276 5.2409 1.11721 5.59548C0.848094 5.73732 0.627277 5.90752 0.627277 6.29046C0.634178 13.4955 0.634178 20.7006 0.627277 27.9057C0.627277 28.1468 0.703183 28.1894 0.917099 28.1894C2.49042 28.1823 4.06374 28.1752 5.63706 28.1894C5.92688 28.1894 6.01659 28.1327 6.01659 27.8135C6.00279 24.7641 6.00969 21.7147 6.00969 18.6653C6.00969 18.5448 6.00969 18.4242 6.00969 18.3037C6.1201 18.4029 6.1753 18.5022 6.2305 18.6015C7.85903 21.6509 9.48755 24.7003 11.1092 27.7568C11.3231 28.161 11.6198 28.3383 12.0752 28.3312C13.6141 28.3099 15.1529 28.3241 16.6917 28.317C16.8918 28.317 17.1609 28.4092 17.2644 28.1965C17.3473 28.0263 17.154 27.8419 17.0574 27.6717ZM10.9091 13.9423C10.6261 15.1621 9.81188 15.928 8.66639 16.3109C7.87973 16.5733 7.07237 16.6017 6.25121 16.4528C6.04419 16.4173 6.00279 16.3251 6.00279 16.1265C6.00969 14.8004 6.00969 13.4672 6.00969 12.141C6.00969 10.8362 6.01659 9.53133 6.00279 8.22648C6.00279 7.99245 6.04419 7.89317 6.28571 7.87899C7.09997 7.82934 7.90733 7.7017 8.72159 7.83644C9.94299 8.035 10.7158 8.72289 10.9505 9.95683C11.2058 11.2759 11.2127 12.6233 10.9091 13.9423Z" fill="white"/>
<path id="Vector_6" d="M47.3024 21.1119C47.3093 21.1119 47.3093 21.1119 47.3024 21.1119C47.3093 19.8141 47.3093 18.5235 47.3093 17.2257C47.3093 16.0839 47.3024 14.9422 47.0954 13.8146C46.8056 12.2332 46.1086 10.9283 44.7009 10.1341C43.376 9.39654 41.9062 9.10578 40.4226 9.12706C39.3737 9.14124 38.3179 9.22634 37.276 9.45327C36.0753 9.71566 34.8746 9.96387 33.7429 10.4674C33.6325 10.517 33.4738 10.517 33.5635 10.751C33.9085 11.6446 34.2328 12.5523 34.5503 13.4529C34.6193 13.6373 34.6814 13.7082 34.8884 13.6161C35.7371 13.2118 36.6342 12.9636 37.5451 12.8005C38.7113 12.5878 39.8913 12.453 41.0505 12.8502C41.6785 13.0629 42.1891 13.4175 42.3064 14.155C42.3823 14.6302 42.3754 15.1124 42.3616 15.6017C42.3547 15.7719 42.2926 15.8215 42.1339 15.8215C41.3887 15.8215 40.6434 15.9208 39.9051 16.0343C38.1109 16.3251 36.3927 16.8427 34.8539 17.871C33.7291 18.6156 32.8803 19.5943 32.5698 20.9701C32.3973 21.7501 32.4663 22.5373 32.5284 23.3245C32.6664 25.0832 33.5497 26.3384 35.0264 27.161C36.2823 27.8631 37.6693 28.09 39.0701 28.1751C41.782 28.3383 44.4594 28.1184 47.0195 27.083C47.2334 26.9979 47.2955 26.9128 47.2955 26.6859C47.3024 24.8279 47.3024 22.9699 47.3024 21.1119ZM42.3547 21.6296C42.3547 22.6295 42.3478 23.6294 42.3547 24.6293C42.3547 24.8208 42.3202 24.913 42.1063 24.9556C41.3611 25.1045 40.6158 25.2038 39.8499 25.1541C38.5388 25.069 37.7314 24.3457 37.4899 23.0195C37.3519 22.2678 37.3864 21.5161 37.6072 20.7857C37.8418 20.0056 38.3248 19.4454 39.077 19.1262C40.0224 18.722 41.0022 18.4525 42.0304 18.3603C42.2857 18.3391 42.3616 18.3887 42.3547 18.6653C42.3478 19.6581 42.3547 20.6438 42.3547 21.6296Z" fill="white"/>
<path id="Vector_7" d="M86.3111 13.4242C85.5589 11.6513 84.3858 10.2685 82.5779 9.59476C79.9488 8.60903 77.4301 9.04871 75.0977 10.5096C73.3795 11.5875 72.441 13.3179 71.9304 15.261C71.3922 17.3104 71.4129 19.4237 71.8131 21.4874C72.2478 23.7425 73.3726 25.6218 75.2772 26.9196C76.7677 27.9337 78.479 28.2528 80.2248 28.3095C81.4186 28.345 82.5986 28.0755 83.7717 27.8628C84.586 27.7138 85.3864 27.5295 86.1593 27.2103C86.4836 27.0756 86.594 26.8841 86.5043 26.5012C86.2766 25.5509 85.8074 24.6857 85.6003 23.7355C85.5727 23.6007 85.4968 23.5653 85.3795 23.6149C85.2829 23.6504 85.1863 23.6787 85.0897 23.7142C83.3922 24.317 81.6601 24.6645 79.8522 24.3737C78.7964 24.2035 77.8855 23.7638 77.2921 22.7852C76.885 22.1115 76.7953 21.3314 76.5399 20.5797C76.8022 20.5584 77.0023 20.5442 77.2093 20.5159C80.5147 20.1187 83.7786 19.4167 87.0908 19.0975C87.2496 19.0833 87.2979 19.0337 87.2979 18.8635C87.2634 16.9984 87.0425 15.1617 86.3111 13.4242ZM82.1432 17.0197C80.3283 17.1332 78.5618 17.587 76.7677 17.8139C76.2501 17.8778 76.2501 17.8849 76.2639 17.0906C76.3053 16.2467 76.4502 15.2468 76.8091 14.2752C77.4853 12.474 79.6107 11.7719 81.0529 12.8924C81.5842 13.3037 81.8534 13.8852 82.0397 14.5093C82.2605 15.2468 82.3364 16.0056 82.3364 16.7715C82.3364 16.9275 82.3157 17.0126 82.1432 17.0197Z" fill="white"/>
<path id="Vector_8" d="M31.1759 13.7645C30.5549 11.949 29.4784 10.5449 27.705 9.79317C26.3456 9.21875 24.9241 9.01309 23.4611 9.16201C20.5284 9.45986 18.3962 10.942 17.1886 13.7077C16.0017 16.4096 15.9258 19.225 16.6503 22.0546C17.0782 23.7211 17.8855 25.1891 19.1828 26.3308C20.7216 27.6782 22.5572 28.203 24.5307 28.2385C26.7941 28.281 29.0161 27.9406 31.1276 27.0471C31.2725 26.9833 31.307 26.9407 31.2725 26.7705C31.0517 25.806 30.6791 24.8983 30.3479 23.9693C30.2237 23.6218 30.0718 23.5367 29.7268 23.6644C28.5261 24.1111 27.3254 24.5437 26.0143 24.4303C25.6486 24.4303 25.276 24.4374 24.9103 24.4303C22.8677 24.4019 21.5014 22.5864 21.3082 20.8206C21.2806 20.5937 21.3703 20.5512 21.5635 20.5299C22.985 20.3313 24.4065 20.1257 25.8211 19.92C27.7671 19.6363 29.7061 19.3598 31.6521 19.0832C31.8108 19.0619 31.8936 19.0335 31.8867 18.835C31.8591 17.1188 31.7349 15.4097 31.1759 13.7645ZM26.732 17.0266C24.9034 17.2961 23.0816 17.5727 21.253 17.8563C21.0391 17.8918 20.9563 17.8492 20.977 17.6152C20.9977 17.3954 20.9839 17.1685 20.9839 16.9486C21.046 15.9487 21.1633 14.9559 21.5773 14.034C22.2329 12.5802 23.9028 11.9561 25.3243 12.6156C25.9246 12.8922 26.3042 13.3886 26.5319 13.9985C26.87 14.8991 26.9252 15.8494 26.9459 16.8068C26.9597 16.977 26.8838 17.0053 26.732 17.0266Z" fill="white"/>
</g>
<defs>
<linearGradient id="paint0_linear_4063_16126" x1="71.8174" y1="-0.957608" x2="59.6976" y2="30.6179" gradientUnits="userSpaceOnUse">
<stop stop-color="#F35C35"/>
<stop offset="1" stop-color="#FE8B1A"/>
<stop offset="1" stop-color="#FE8B1A"/>
</linearGradient>
<clipPath id="clip0_4063_16126">
<rect width="109.201" height="28.3452" fill="white" transform="translate(0.627277)"/>
</clipPath>
</defs>
</svg>
