<svg width="191" height="49" viewBox="0 0 191 49" fill="none" xmlns="http://www.w3.org/2000/svg">
<g id="Logo/default" clip-path="url(#clip0_3977_24999)">
<path id="Vector" d="M122.735 0C123.648 0.82668 124.2 1.90866 124.789 2.95417C126.53 6.05422 128.007 9.31231 129.82 12.3759C129.868 12.461 129.904 12.5582 129.953 12.6433C130.889 14.4547 130.217 15.3908 128.367 16.0595C127.347 16.4242 126.602 15.7799 125.978 15.0504C125.065 13.9806 124.548 12.692 124.116 11.3304C123.6 11.6221 123.48 12.1449 123.324 12.6312C122.255 16.181 121.21 19.7309 120.129 23.2686C117.835 30.8789 115.518 38.4771 113.224 46.0874C113.044 46.6831 112.912 47.291 112.804 47.911C112.756 48.2027 112.648 48.3122 112.347 48.3122C109.465 48.3 106.595 48.3 103.713 48.3122C103.449 48.3122 103.341 48.2271 103.256 47.9596C100.422 38.7689 97.24 29.6875 94.598 20.436C94.3818 19.6823 94.1417 18.9285 94.1777 18.1262C94.2257 16.7889 95.0784 15.8893 96.4114 15.8528C97.9125 15.8163 99.4016 15.7677 100.903 15.8771C102.284 15.9865 103.088 16.7646 103.545 17.9803C104.169 19.6458 104.481 21.3964 104.914 23.1106C105.718 26.3079 106.499 29.5173 107.292 32.7268C107.364 33.0429 107.4 33.2131 107.027 33.359C105.31 34.0155 104.493 35.8876 105.01 37.8571C105.466 39.6077 107.099 40.7262 108.865 40.5195C110.282 40.3493 111.387 39.705 111.927 38.3434C112.467 36.9696 112.359 35.6202 111.471 34.3802C111.11 33.8696 110.618 33.517 110.042 33.3347C109.753 33.2374 109.705 33.1037 109.729 32.8119C109.885 31.1342 110.414 29.5417 110.822 27.9248C112.455 21.5423 114.053 15.1599 115.674 8.78956C115.698 8.71661 115.698 8.63151 115.722 8.437C114.785 8.89897 113.92 9.31231 113.056 9.76212C112.503 10.0417 111.975 10.3821 111.435 10.6739C110.342 11.2574 109.525 11.0265 108.901 9.95663C108.576 9.40956 108.42 8.81387 108.24 8.21817C108.168 7.97503 108.252 7.80483 108.42 7.62248C108.961 7.01462 109.609 6.52834 110.306 6.13932C113.668 4.25497 117.055 2.38278 120.501 0.644324C121.03 0.376869 121.606 0.20667 122.147 0C122.339 0 122.531 0 122.735 0Z" fill="url(#paint0_linear_3977_24999)"/>
<path id="Vector_2" d="M190.394 47.5947C189.613 47.6798 188.893 48.0202 188.124 48.1296C185.854 48.4457 183.561 48.6159 181.411 47.6069C178.217 46.1116 176.511 43.5343 176.487 39.9601C176.439 34.3557 176.463 28.7391 176.487 23.1226C176.487 22.5633 176.331 22.4539 175.827 22.4782C175.01 22.5269 174.182 22.4782 173.365 22.5025C173.029 22.5147 172.909 22.4053 172.921 22.0649C172.933 20.3143 172.945 18.5515 172.921 16.8009C172.921 16.3997 173.065 16.3389 173.413 16.3511C174.278 16.3754 175.13 16.3389 175.995 16.3632C176.379 16.3754 176.499 16.266 176.487 15.8648C176.463 13.9683 176.487 12.0718 176.475 10.1753C176.475 9.89567 176.475 9.70115 176.824 9.61606C179.634 8.9231 182.444 8.20584 185.242 7.50073C185.338 7.47641 185.434 7.46426 185.59 7.43994C185.59 8.32741 185.59 9.19056 185.59 10.0537C185.59 11.9867 185.602 13.9318 185.578 15.8648C185.578 16.266 185.686 16.3754 186.071 16.3632C187.512 16.3389 188.953 16.3511 190.394 16.3511C190.394 18.4056 190.394 20.4723 190.394 22.5269C190.166 22.7335 189.877 22.7092 189.601 22.7092C188.556 22.7092 187.524 22.7092 186.479 22.7092C185.854 22.7092 185.782 22.77 185.782 23.4022C185.782 28.6054 185.782 33.8208 185.782 39.024C185.782 39.5103 185.878 39.9844 186.071 40.4342C186.359 41.1272 186.851 41.577 187.62 41.7107C188.292 41.8323 188.977 41.8444 189.649 41.7715C189.913 41.7472 190.166 41.6864 190.394 41.8809C190.394 43.8017 190.394 45.6982 190.394 47.5947Z" fill="#252F48"/>
<path id="Vector_3" d="M160.167 48.3732C157.741 48.3853 155.4 47.9355 153.154 47.0238C150.932 46.112 151.161 45.7108 152.001 44.0574C152.53 43.0362 153.022 42.0029 153.286 40.8844C153.394 40.4589 153.562 40.4225 153.959 40.5076C154.727 40.6899 155.4 41.0911 156.12 41.3829C157.85 42.0758 159.579 42.1245 161.32 41.4315C162.449 40.9817 162.833 40.3738 162.797 39.1581C162.785 38.6719 162.749 38.1856 162.665 37.7115C162.461 36.4471 161.801 35.5475 160.576 35.0734C158.822 34.4047 157.081 33.6632 155.556 32.5569C152.95 30.6725 151.305 26.8674 152.289 23.1108C153.454 18.6857 157.802 15.6707 161.825 15.8531C163.854 15.9503 165.92 15.8652 167.877 16.4852C168.994 16.8378 170.063 17.3605 171.156 17.7982C171.384 17.8833 171.384 18.0049 171.36 18.2115C171.3 18.6613 171.168 19.0747 170.999 19.488C170.531 20.5943 170.039 21.7006 169.594 22.8191C169.438 23.2202 169.246 23.2324 168.898 23.1108C167.793 22.7218 166.784 22.0532 165.607 21.8586C164.767 21.7249 163.938 21.652 163.122 21.9681C160.78 22.8677 160.323 25.8705 162.281 27.5117C163.134 28.2289 164.13 28.6909 165.115 29.1894C166.544 29.9188 167.985 30.5874 169.258 31.5965C171.156 33.1161 172.176 35.0855 172.392 37.4926C172.597 39.766 172.2 41.9056 170.855 43.8143C169.69 45.4677 168.105 46.5375 166.268 47.2791C164.31 48.0571 162.269 48.3732 160.167 48.3732Z" fill="#252F48"/>
<path id="Vector_4" d="M93.2289 25.4689C93.2289 32.8725 93.2169 40.2762 93.2409 47.6798C93.2409 48.2269 93.0848 48.3363 92.5804 48.3242C89.9384 48.2999 87.3085 48.2999 84.6665 48.3242C84.2221 48.3242 84.1021 48.2269 84.1021 47.7649C84.1141 32.8725 84.1141 17.9923 84.1021 3.0999C84.1021 2.62578 84.2462 2.54068 84.6785 2.55283C87.3325 2.57715 89.9985 2.57715 92.6525 2.55283C93.1208 2.55283 93.2409 2.67441 93.2409 3.14853C93.2169 10.5765 93.2289 18.0166 93.2289 25.4689Z" fill="#252F48"/>
<path id="Vector_5" d="M28.9448 47.437C26.1226 42.6349 23.2885 37.8451 20.4664 33.043C19.986 32.2163 19.5657 31.341 19.0974 30.4536C19.5777 30.3685 19.986 30.3198 20.3703 30.2226C22.3398 29.7241 23.877 28.5328 25.258 27.0982C26.5069 25.8096 27.5157 24.375 27.7919 22.5393C27.948 21.433 27.936 20.3267 27.96 19.2204C27.9961 15.8408 26.567 13.1541 24.0931 10.9901C22.0396 9.19087 19.5297 8.44929 16.9237 8.02379C12.8767 7.36731 8.84169 7.56182 4.83068 8.3885C3.58174 8.6438 2.34481 8.9842 1.20396 9.59205C0.735607 9.83519 0.351318 10.127 0.351318 10.7834C0.363327 23.135 0.363327 35.4866 0.351318 47.8382C0.351318 48.2515 0.483417 48.3244 0.855697 48.3244C3.59375 48.3123 6.3318 48.3001 9.06986 48.3244C9.57424 48.3244 9.73035 48.2272 9.73035 47.6801C9.70634 42.4526 9.71834 37.2251 9.71834 31.9975C9.71834 31.7908 9.71834 31.5842 9.71834 31.3775C9.91049 31.5477 10.0066 31.7179 10.1026 31.8881C12.9368 37.1156 15.7709 42.3432 18.593 47.5829C18.9653 48.2758 19.4817 48.5797 20.2743 48.5676C22.9523 48.5311 25.6303 48.5554 28.3083 48.5433C28.6565 48.5433 29.1249 48.7013 29.305 48.3366C29.4491 48.0448 29.1129 47.7288 28.9448 47.437ZM18.2447 23.9009C17.7524 25.9919 16.3353 27.3049 14.3418 27.9614C12.9728 28.4112 11.5677 28.4598 10.1387 28.2045C9.77839 28.1437 9.70634 27.9857 9.70634 27.6453C9.71834 25.3719 9.71834 23.0864 9.71834 20.813C9.71834 18.5761 9.73035 16.3392 9.70634 14.1023C9.70634 13.7011 9.77839 13.5309 10.1987 13.5066C11.6158 13.4215 13.0208 13.2027 14.4379 13.4337C16.5635 13.7741 17.9085 14.9533 18.3168 17.0686C18.7611 19.3299 18.7731 21.6397 18.2447 23.9009Z" fill="#252F48"/>
<path id="Vector_6" d="M81.5802 36.1913C81.5922 36.1913 81.5922 36.1913 81.5802 36.1913C81.5922 33.9666 81.5922 31.754 81.5922 29.5293C81.5922 27.572 81.5802 25.6147 81.22 23.6817C80.7156 20.9707 79.5027 18.7338 77.0528 17.3722C74.7471 16.1079 72.1892 15.6094 69.6073 15.6459C67.7819 15.6702 65.9445 15.8161 64.1311 16.2051C62.0416 16.6549 59.952 17.0804 57.9825 17.9436C57.7904 18.0287 57.5142 18.0287 57.6703 18.4299C58.2708 19.9617 58.8352 21.5178 59.3876 23.0617C59.5077 23.3778 59.6158 23.4994 59.976 23.3413C61.4531 22.6484 63.0143 22.2229 64.5995 21.9433C66.629 21.5785 68.6826 21.3476 70.7001 22.0284C71.7929 22.3931 72.6816 23.0009 72.8857 24.2653C73.0178 25.0798 73.0058 25.9065 72.9818 26.7453C72.9698 27.0371 72.8617 27.1222 72.5855 27.1222C71.2885 27.1222 69.9915 27.2924 68.7066 27.4869C65.5842 27.9853 62.594 28.8728 59.916 30.6356C57.9585 31.912 56.4814 33.5897 55.941 35.9482C55.6408 37.2855 55.7609 38.6349 55.8689 39.9843C56.1091 42.9993 57.6463 45.1511 60.2162 46.5613C62.4019 47.7649 64.8157 48.1539 67.2535 48.2998C71.973 48.5794 76.6325 48.2025 81.0879 46.4276C81.4601 46.2817 81.5682 46.1358 81.5682 45.7468C81.5802 42.5616 81.5802 39.3765 81.5802 36.1913ZM72.9698 37.0788C72.9698 38.7929 72.9578 40.5071 72.9698 42.2212C72.9698 42.5495 72.9097 42.7075 72.5374 42.7805C71.2405 43.0358 69.9435 43.206 68.6105 43.1209C66.3288 42.975 64.9237 41.735 64.5034 39.4616C64.2632 38.1729 64.3233 36.8843 64.7076 35.6321C65.1159 34.2948 65.9565 33.3344 67.2655 32.7874C68.9107 32.0944 70.616 31.6324 72.4054 31.4744C72.8497 31.4379 72.9818 31.523 72.9698 31.9972C72.9578 33.6991 72.9698 35.389 72.9698 37.0788Z" fill="#252F48"/>
<path id="Vector_7" d="M149.467 23.0133C148.158 19.974 146.117 17.6034 142.97 16.4484C138.395 14.7586 134.012 15.5124 129.953 18.0167C126.962 19.8646 125.329 22.8309 124.44 26.1619C123.504 29.6753 123.54 33.2981 124.236 36.8358C124.993 40.7018 126.95 43.9234 130.265 46.1481C132.859 47.8866 135.837 48.4337 138.875 48.5309C140.953 48.5917 143.006 48.1297 145.048 47.765C146.465 47.5097 147.858 47.1937 149.203 46.6466C149.767 46.4156 149.96 46.0874 149.803 45.4309C149.407 43.8018 148.591 42.3187 148.23 40.6896C148.182 40.4586 148.05 40.3979 147.846 40.483C147.678 40.5437 147.51 40.5924 147.342 40.6532C144.387 41.6865 141.373 42.2822 138.227 41.7838C136.389 41.492 134.804 40.7383 133.771 39.0606C133.063 37.9057 132.907 36.5684 132.462 35.2797C132.919 35.2433 133.267 35.2189 133.627 35.1703C139.38 34.4895 145.06 33.286 150.824 32.7389C151.1 32.7146 151.184 32.6295 151.184 32.3377C151.124 29.1404 150.74 25.9917 149.467 23.0133ZM142.214 29.1769C139.055 29.3714 135.981 30.1495 132.859 30.5385C131.958 30.6479 131.958 30.66 131.982 29.2985C132.054 27.8518 132.306 26.1376 132.931 24.4721C134.108 21.3842 137.806 20.1807 140.316 22.1015C141.241 22.8066 141.709 23.8035 142.034 24.8733C142.418 26.1376 142.55 27.4384 142.55 28.7514C142.55 29.0188 142.514 29.1647 142.214 29.1769Z" fill="#252F48"/>
<path id="Vector_8" d="M53.5152 23.5971C52.4344 20.4849 50.561 18.0778 47.4747 16.7891C45.1089 15.8044 42.635 15.4518 40.0891 15.7071C34.9853 16.2177 31.2745 18.7586 29.1729 23.4998C27.1074 28.1317 26.9753 32.958 28.2362 37.8087C28.9808 40.6656 30.3859 43.1821 32.6436 45.1394C35.3216 47.4492 38.516 48.3489 41.9505 48.4096C45.8895 48.4826 49.7564 47.899 53.4311 46.3673C53.6833 46.2578 53.7434 46.1849 53.6833 45.8931C53.299 44.2398 52.6506 42.6837 52.0741 41.0911C51.858 40.4954 51.5938 40.3495 50.9933 40.5683C48.9037 41.3342 46.8142 42.0758 44.5325 41.8813C43.896 41.8813 43.2475 41.8935 42.611 41.8813C39.0564 41.8327 36.6786 38.7205 36.3423 35.6934C36.2943 35.3043 36.4504 35.2314 36.7867 35.1949C39.2605 34.8545 41.7344 34.502 44.1962 34.1494C47.5828 33.6631 50.9573 33.189 54.3438 32.7149C54.62 32.6784 54.7641 32.6298 54.7521 32.2894C54.7041 29.3474 54.4879 26.4175 53.5152 23.5971ZM45.7814 29.1893C42.599 29.6513 39.4286 30.1254 36.2463 30.6117C35.874 30.6725 35.7299 30.5995 35.7659 30.1984C35.8019 29.8215 35.7779 29.4325 35.7779 29.0556C35.886 27.3415 36.0901 25.6395 36.8107 24.059C37.9515 21.5669 40.8577 20.497 43.3316 21.6276C44.3764 22.1018 45.0368 22.9528 45.4331 23.9983C46.0216 25.5422 46.1177 27.1713 46.1537 28.8125C46.1777 29.1042 46.0456 29.1529 45.7814 29.1893Z" fill="#252F48"/>
</g>
<defs>
<linearGradient id="paint0_linear_3977_24999" x1="124.244" y1="-1.64161" x2="103.699" y2="52.6949" gradientUnits="userSpaceOnUse">
<stop stop-color="#F35C35"/>
<stop offset="1" stop-color="#FE8B1A"/>
<stop offset="1" stop-color="#FE8B1A"/>
</linearGradient>
<clipPath id="clip0_3977_24999">
<rect width="190.043" height="48.5918" fill="white" transform="translate(0.351318)"/>
</clipPath>
</defs>
</svg>
