<svg width="20" height="20" viewBox="0 0 20 20" fill="none" xmlns="http://www.w3.org/2000/svg">
<path d="M14.1417 10.2085V13.9585C14.1417 17.0835 12.8917 18.3335 9.76672 18.3335H6.01672C2.89172 18.3335 1.64172 17.0835 1.64172 13.9585V10.2085C1.64172 7.0835 2.89172 5.8335 6.01672 5.8335H9.76672C12.8917 5.8335 14.1417 7.0835 14.1417 10.2085Z" stroke="#F35C35" stroke-width="1.5" stroke-linecap="round" stroke-linejoin="round"/>
<path d="M18.3084 4.87484V7.62484C18.3084 9.9165 17.3917 10.8332 15.1001 10.8332H14.1417V10.2082C14.1417 7.08317 12.8917 5.83317 9.76672 5.83317H9.14172V4.87484C9.14172 2.58317 10.0584 1.6665 12.3501 1.6665H15.1001C17.3917 1.6665 18.3084 2.58317 18.3084 4.87484Z" stroke="#F35C35" stroke-width="1.5" stroke-linecap="round" stroke-linejoin="round"/>
</svg>
